M48
METRIC,LZ,000.000
;FILE_FORMAT=3:3
;TYPE=PLATED
;Layer: PTH_Through
;EasyEDA v6.5.15, 2022-08-31 14:33:10
;7f742d56b1564ff082f2a7d2e7a97bc1,d16243303ffc4a33bbfddbaf118a1a26,10
;Gerber Generator version 0.2
;Holesize 1 = 0.915 mm
T01C0.915
;Holesize 2 = 1.501 mm
T02C1.501
%
G05
G90
T01
X017780Y119507
X020320Y119507
X022860Y119507
X025400Y119507
X011430Y107950
X013970Y107950
X019050Y107950
X021590Y107950
X024130Y107950
X026670Y107950
X029210Y107950
X031750Y107950
X034290Y107950
X036830Y107950
X039370Y107950
X039370Y092710
X036830Y092710
X034290Y092710
X031750Y092710
X029210Y092710
X026670Y092710
X024130Y092710
X021590Y092710
X019050Y092710
X016510Y092710
X013970Y092710
X011430Y092710
X016510Y107950
T02
X049684Y113578
X037184Y113578
X049684Y118578
X037184Y118578
X049684Y097703
X037184Y097703
X049684Y102703
X037184Y102703
M30
