G04 Layer: TopSilkscreenLayer*
G04 EasyEDA v6.5.15, 2022-08-31 14:33:10*
G04 7f742d56b1564ff082f2a7d2e7a97bc1,d16243303ffc4a33bbfddbaf118a1a26,10*
G04 Gerber Generator version 0.2*
G04 Scale: 100 percent, Rotated: No, Reflected: No *
G04 Dimensions in millimeters *
G04 leading zeros omitted , absolute positions ,4 integer and 5 decimal *
%FSLAX45Y45*%
%MOMM*%

%ADD10C,0.1524*%
%ADD11C,0.2032*%
%ADD12C,0.2540*%

%LPD*%
D10*
X4038600Y12370815D02*
G01*
X4038600Y12261850D01*
X4038600Y12370815D02*
G01*
X4085336Y12370815D01*
X4100829Y12365736D01*
X4106163Y12360402D01*
X4111243Y12349987D01*
X4111243Y12339574D01*
X4106163Y12329160D01*
X4100829Y12324079D01*
X4085336Y12319000D01*
X4038600Y12319000D02*
G01*
X4085336Y12319000D01*
X4100829Y12313665D01*
X4106163Y12308586D01*
X4111243Y12298171D01*
X4111243Y12282424D01*
X4106163Y12272010D01*
X4100829Y12266929D01*
X4085336Y12261850D01*
X4038600Y12261850D01*
X4176775Y12370815D02*
G01*
X4166361Y12365736D01*
X4155947Y12355321D01*
X4150868Y12344908D01*
X4145534Y12329160D01*
X4145534Y12303252D01*
X4150868Y12287758D01*
X4155947Y12277344D01*
X4166361Y12266929D01*
X4176775Y12261850D01*
X4197604Y12261850D01*
X4208018Y12266929D01*
X4218431Y12277344D01*
X4223511Y12287758D01*
X4228845Y12303252D01*
X4228845Y12329160D01*
X4223511Y12344908D01*
X4218431Y12355321D01*
X4208018Y12365736D01*
X4197604Y12370815D01*
X4176775Y12370815D01*
X4299458Y12370815D02*
G01*
X4299458Y12261850D01*
X4263136Y12370815D02*
G01*
X4335779Y12370815D01*
X4401311Y12370815D02*
G01*
X4390897Y12365736D01*
X4380484Y12355321D01*
X4375150Y12344908D01*
X4370070Y12329160D01*
X4370070Y12303252D01*
X4375150Y12287758D01*
X4380484Y12277344D01*
X4390897Y12266929D01*
X4401311Y12261850D01*
X4422140Y12261850D01*
X4432300Y12266929D01*
X4442713Y12277344D01*
X4448047Y12287758D01*
X4453127Y12303252D01*
X4453127Y12329160D01*
X4448047Y12344908D01*
X4442713Y12355321D01*
X4432300Y12365736D01*
X4422140Y12370815D01*
X4401311Y12370815D01*
X4487418Y12370815D02*
G01*
X4487418Y12261850D01*
X4487418Y12370815D02*
G01*
X4560315Y12261850D01*
X4560315Y12370815D02*
G01*
X4560315Y12261850D01*
X4594606Y12349987D02*
G01*
X4605020Y12355321D01*
X4620513Y12370815D01*
X4620513Y12261850D01*
X4051300Y10783315D02*
G01*
X4051300Y10674350D01*
X4051300Y10783315D02*
G01*
X4098036Y10783315D01*
X4113529Y10778236D01*
X4118863Y10772902D01*
X4123943Y10762487D01*
X4123943Y10752074D01*
X4118863Y10741660D01*
X4113529Y10736579D01*
X4098036Y10731500D01*
X4051300Y10731500D02*
G01*
X4098036Y10731500D01*
X4113529Y10726165D01*
X4118863Y10721086D01*
X4123943Y10710671D01*
X4123943Y10694924D01*
X4118863Y10684510D01*
X4113529Y10679429D01*
X4098036Y10674350D01*
X4051300Y10674350D01*
X4189475Y10783315D02*
G01*
X4179061Y10778236D01*
X4168647Y10767821D01*
X4163568Y10757408D01*
X4158234Y10741660D01*
X4158234Y10715752D01*
X4163568Y10700258D01*
X4168647Y10689844D01*
X4179061Y10679429D01*
X4189475Y10674350D01*
X4210304Y10674350D01*
X4220718Y10679429D01*
X4231131Y10689844D01*
X4236211Y10700258D01*
X4241545Y10715752D01*
X4241545Y10741660D01*
X4236211Y10757408D01*
X4231131Y10767821D01*
X4220718Y10778236D01*
X4210304Y10783315D01*
X4189475Y10783315D01*
X4312158Y10783315D02*
G01*
X4312158Y10674350D01*
X4275836Y10783315D02*
G01*
X4348479Y10783315D01*
X4414011Y10783315D02*
G01*
X4403597Y10778236D01*
X4393184Y10767821D01*
X4387850Y10757408D01*
X4382770Y10741660D01*
X4382770Y10715752D01*
X4387850Y10700258D01*
X4393184Y10689844D01*
X4403597Y10679429D01*
X4414011Y10674350D01*
X4434840Y10674350D01*
X4445000Y10679429D01*
X4455413Y10689844D01*
X4460747Y10700258D01*
X4465827Y10715752D01*
X4465827Y10741660D01*
X4460747Y10757408D01*
X4455413Y10767821D01*
X4445000Y10778236D01*
X4434840Y10783315D01*
X4414011Y10783315D01*
X4500118Y10783315D02*
G01*
X4500118Y10674350D01*
X4500118Y10783315D02*
G01*
X4573015Y10674350D01*
X4573015Y10783315D02*
G01*
X4573015Y10674350D01*
X4612386Y10757408D02*
G01*
X4612386Y10762487D01*
X4617720Y10772902D01*
X4622800Y10778236D01*
X4633213Y10783315D01*
X4654041Y10783315D01*
X4664456Y10778236D01*
X4669536Y10772902D01*
X4674870Y10762487D01*
X4674870Y10752074D01*
X4669536Y10741660D01*
X4659122Y10726165D01*
X4607306Y10674350D01*
X4679950Y10674350D01*
X2037841Y12358115D02*
G01*
X2022093Y12353036D01*
X2011679Y12337287D01*
X2006600Y12311379D01*
X2006600Y12295886D01*
X2011679Y12269724D01*
X2022093Y12254229D01*
X2037841Y12249150D01*
X2048256Y12249150D01*
X2063750Y12254229D01*
X2074163Y12269724D01*
X2079243Y12295886D01*
X2079243Y12311379D01*
X2074163Y12337287D01*
X2063750Y12353036D01*
X2048256Y12358115D01*
X2037841Y12358115D01*
X2118868Y12275058D02*
G01*
X2113534Y12269724D01*
X2118868Y12264644D01*
X2123947Y12269724D01*
X2118868Y12275058D01*
X2225802Y12321794D02*
G01*
X2220722Y12306300D01*
X2210308Y12295886D01*
X2194559Y12290552D01*
X2189479Y12290552D01*
X2173986Y12295886D01*
X2163572Y12306300D01*
X2158238Y12321794D01*
X2158238Y12326874D01*
X2163572Y12342621D01*
X2173986Y12353036D01*
X2189479Y12358115D01*
X2194559Y12358115D01*
X2210308Y12353036D01*
X2220722Y12342621D01*
X2225802Y12321794D01*
X2225802Y12295886D01*
X2220722Y12269724D01*
X2210308Y12254229D01*
X2194559Y12249150D01*
X2184400Y12249150D01*
X2168652Y12254229D01*
X2163572Y12264644D01*
X2322575Y12342621D02*
G01*
X2317241Y12353036D01*
X2301747Y12358115D01*
X2291334Y12358115D01*
X2275840Y12353036D01*
X2265425Y12337287D01*
X2260091Y12311379D01*
X2260091Y12285471D01*
X2265425Y12264644D01*
X2275840Y12254229D01*
X2291334Y12249150D01*
X2296413Y12249150D01*
X2312161Y12254229D01*
X2322575Y12264644D01*
X2327656Y12280137D01*
X2327656Y12285471D01*
X2322575Y12300965D01*
X2312161Y12311379D01*
X2296413Y12316460D01*
X2291334Y12316460D01*
X2275840Y12311379D01*
X2265425Y12300965D01*
X2260091Y12285471D01*
X2361945Y12358115D02*
G01*
X2361945Y12249150D01*
X2396236Y12358115D02*
G01*
X2396236Y12249150D01*
X2396236Y12358115D02*
G01*
X2468879Y12249150D01*
X2468879Y12358115D02*
G01*
X2468879Y12249150D01*
X2581147Y12332208D02*
G01*
X2576068Y12342621D01*
X2565654Y12353036D01*
X2555240Y12358115D01*
X2534411Y12358115D01*
X2523997Y12353036D01*
X2513584Y12342621D01*
X2508504Y12332208D01*
X2503170Y12316460D01*
X2503170Y12290552D01*
X2508504Y12275058D01*
X2513584Y12264644D01*
X2523997Y12254229D01*
X2534411Y12249150D01*
X2555240Y12249150D01*
X2565654Y12254229D01*
X2576068Y12264644D01*
X2581147Y12275058D01*
X2615438Y12358115D02*
G01*
X2615438Y12249150D01*
X2688336Y12358115D02*
G01*
X2688336Y12249150D01*
X2615438Y12306300D02*
G01*
X2688336Y12306300D01*
D11*
X1244600Y10961878D02*
G01*
X1244600Y10768076D01*
X1244600Y10961878D02*
G01*
X1327657Y10961878D01*
X1355344Y10952734D01*
X1364742Y10943589D01*
X1373886Y10925047D01*
X1373886Y10897362D01*
X1364742Y10878820D01*
X1355344Y10869676D01*
X1327657Y10860278D01*
X1244600Y10860278D01*
X1545589Y10897362D02*
G01*
X1545589Y10768076D01*
X1545589Y10869676D02*
G01*
X1527302Y10887963D01*
X1508760Y10897362D01*
X1481073Y10897362D01*
X1462531Y10887963D01*
X1443989Y10869676D01*
X1434845Y10841989D01*
X1434845Y10823447D01*
X1443989Y10795762D01*
X1462531Y10777220D01*
X1481073Y10768076D01*
X1508760Y10768076D01*
X1527302Y10777220D01*
X1545589Y10795762D01*
X1606550Y10897362D02*
G01*
X1606550Y10768076D01*
X1606550Y10860278D02*
G01*
X1634489Y10887963D01*
X1652778Y10897362D01*
X1680463Y10897362D01*
X1699005Y10887963D01*
X1708150Y10860278D01*
X1708150Y10768076D01*
X1797050Y10961878D02*
G01*
X1797050Y10804905D01*
X1806194Y10777220D01*
X1824736Y10768076D01*
X1843023Y10768076D01*
X1769110Y10897362D02*
G01*
X1833879Y10897362D01*
X2014981Y10897362D02*
G01*
X2014981Y10768076D01*
X2014981Y10869676D02*
G01*
X1996440Y10887963D01*
X1977897Y10897362D01*
X1950211Y10897362D01*
X1931670Y10887963D01*
X1913381Y10869676D01*
X1903984Y10841989D01*
X1903984Y10823447D01*
X1913381Y10795762D01*
X1931670Y10777220D01*
X1950211Y10768076D01*
X1977897Y10768076D01*
X1996440Y10777220D01*
X2014981Y10795762D01*
X2075941Y10961878D02*
G01*
X2075941Y10768076D01*
X2136902Y10961878D02*
G01*
X2136902Y10768076D01*
X2308606Y10897362D02*
G01*
X2308606Y10768076D01*
X2308606Y10869676D02*
G01*
X2290063Y10887963D01*
X2271775Y10897362D01*
X2244090Y10897362D01*
X2225547Y10887963D01*
X2207006Y10869676D01*
X2197861Y10841989D01*
X2197861Y10823447D01*
X2207006Y10795762D01*
X2225547Y10777220D01*
X2244090Y10768076D01*
X2271775Y10768076D01*
X2290063Y10777220D01*
X2308606Y10795762D01*
X2567177Y10961878D02*
G01*
X2548890Y10952734D01*
X2530347Y10934192D01*
X2520950Y10915650D01*
X2511806Y10887963D01*
X2511806Y10841989D01*
X2520950Y10814050D01*
X2530347Y10795762D01*
X2548890Y10777220D01*
X2567177Y10768076D01*
X2604261Y10768076D01*
X2622550Y10777220D01*
X2641091Y10795762D01*
X2650490Y10814050D01*
X2659634Y10841989D01*
X2659634Y10887963D01*
X2650490Y10915650D01*
X2641091Y10934192D01*
X2622550Y10952734D01*
X2604261Y10961878D01*
X2567177Y10961878D01*
X2720593Y10961878D02*
G01*
X2720593Y10768076D01*
X2720593Y10768076D02*
G01*
X2831338Y10768076D01*
X2892297Y10961878D02*
G01*
X2892297Y10768076D01*
X2892297Y10961878D02*
G01*
X3012440Y10961878D01*
X2892297Y10869676D02*
G01*
X2966211Y10869676D01*
X2892297Y10768076D02*
G01*
X3012440Y10768076D01*
X3073400Y10961878D02*
G01*
X3073400Y10768076D01*
X3073400Y10961878D02*
G01*
X3138170Y10961878D01*
X3165856Y10952734D01*
X3184143Y10934192D01*
X3193541Y10915650D01*
X3202686Y10887963D01*
X3202686Y10841989D01*
X3193541Y10814050D01*
X3184143Y10795762D01*
X3165856Y10777220D01*
X3138170Y10768076D01*
X3073400Y10768076D01*
X2516352Y11578869D02*
G01*
X2505938Y11568455D01*
X2500858Y11552961D01*
X2500858Y11532133D01*
X2505938Y11516639D01*
X2516352Y11506225D01*
X2526766Y11506225D01*
X2537180Y11511305D01*
X2542514Y11516639D01*
X2547594Y11527053D01*
X2558008Y11558041D01*
X2563088Y11568455D01*
X2568422Y11573789D01*
X2578836Y11578869D01*
X2594330Y11578869D01*
X2604744Y11568455D01*
X2610078Y11552961D01*
X2610078Y11532133D01*
X2604744Y11516639D01*
X2594330Y11506225D01*
X2500858Y11613159D02*
G01*
X2610078Y11613159D01*
X2500858Y11613159D02*
G01*
X2500858Y11649481D01*
X2505938Y11665229D01*
X2516352Y11675643D01*
X2526766Y11680723D01*
X2542514Y11686057D01*
X2568422Y11686057D01*
X2583916Y11680723D01*
X2594330Y11675643D01*
X2604744Y11665229D01*
X2610078Y11649481D01*
X2610078Y11613159D01*
X2500858Y11761749D02*
G01*
X2610078Y11720347D01*
X2500858Y11761749D02*
G01*
X2610078Y11803405D01*
X2573502Y11735841D02*
G01*
X2573502Y11787911D01*
X2249652Y11604269D02*
G01*
X2239238Y11593855D01*
X2234158Y11578361D01*
X2234158Y11557533D01*
X2239238Y11542039D01*
X2249652Y11531625D01*
X2260066Y11531625D01*
X2270480Y11536705D01*
X2275814Y11542039D01*
X2280894Y11552453D01*
X2291308Y11583441D01*
X2296388Y11593855D01*
X2301722Y11599189D01*
X2312136Y11604269D01*
X2327630Y11604269D01*
X2338044Y11593855D01*
X2343378Y11578361D01*
X2343378Y11557533D01*
X2338044Y11542039D01*
X2327630Y11531625D01*
X2260066Y11716537D02*
G01*
X2249652Y11711457D01*
X2239238Y11701043D01*
X2234158Y11690629D01*
X2234158Y11669801D01*
X2239238Y11659387D01*
X2249652Y11648973D01*
X2260066Y11643893D01*
X2275814Y11638559D01*
X2301722Y11638559D01*
X2317216Y11643893D01*
X2327630Y11648973D01*
X2338044Y11659387D01*
X2343378Y11669801D01*
X2343378Y11690629D01*
X2338044Y11701043D01*
X2327630Y11711457D01*
X2317216Y11716537D01*
X2234158Y11750827D02*
G01*
X2343378Y11750827D01*
X2343378Y11750827D02*
G01*
X2343378Y11813311D01*
X1980158Y11493525D02*
G01*
X2089378Y11535181D01*
X1980158Y11576583D02*
G01*
X2089378Y11535181D01*
X2006066Y11688851D02*
G01*
X1995652Y11683771D01*
X1985238Y11673357D01*
X1980158Y11662943D01*
X1980158Y11642115D01*
X1985238Y11631701D01*
X1995652Y11621287D01*
X2006066Y11616207D01*
X2021814Y11610873D01*
X2047722Y11610873D01*
X2063216Y11616207D01*
X2073630Y11621287D01*
X2084044Y11631701D01*
X2089378Y11642115D01*
X2089378Y11662943D01*
X2084044Y11673357D01*
X2073630Y11683771D01*
X2063216Y11688851D01*
X2006066Y11801119D02*
G01*
X1995652Y11795785D01*
X1985238Y11785371D01*
X1980158Y11775211D01*
X1980158Y11754383D01*
X1985238Y11743969D01*
X1995652Y11733555D01*
X2006066Y11728221D01*
X2021814Y11723141D01*
X2047722Y11723141D01*
X2063216Y11728221D01*
X2073630Y11733555D01*
X2084044Y11743969D01*
X2089378Y11754383D01*
X2089378Y11775211D01*
X2084044Y11785371D01*
X2073630Y11795785D01*
X2063216Y11801119D01*
X1752066Y11584203D02*
G01*
X1741652Y11578869D01*
X1731238Y11568455D01*
X1726158Y11558041D01*
X1726158Y11537467D01*
X1731238Y11527053D01*
X1741652Y11516639D01*
X1752066Y11511305D01*
X1767814Y11506225D01*
X1793722Y11506225D01*
X1809216Y11511305D01*
X1819630Y11516639D01*
X1830044Y11527053D01*
X1835378Y11537467D01*
X1835378Y11558041D01*
X1830044Y11568455D01*
X1819630Y11578869D01*
X1809216Y11584203D01*
X1793722Y11584203D01*
X1793722Y11558041D02*
G01*
X1793722Y11584203D01*
X1726158Y11618493D02*
G01*
X1835378Y11618493D01*
X1726158Y11618493D02*
G01*
X1835378Y11691137D01*
X1726158Y11691137D02*
G01*
X1835378Y11691137D01*
X1726158Y11725427D02*
G01*
X1835378Y11725427D01*
X1726158Y11725427D02*
G01*
X1726158Y11761749D01*
X1731238Y11777497D01*
X1741652Y11787911D01*
X1752066Y11792991D01*
X1767814Y11798071D01*
X1793722Y11798071D01*
X1809216Y11792991D01*
X1819630Y11787911D01*
X1830044Y11777497D01*
X1835378Y11761749D01*
X1835378Y11725427D01*
D12*
X3743398Y12207798D02*
G01*
X3743398Y12003537D01*
X3743398Y11711426D02*
G01*
X3743398Y11504043D01*
X3743398Y11212192D02*
G01*
X3743398Y11007801D01*
X4943396Y11007801D01*
X4943396Y11211938D01*
X4943396Y11503789D02*
G01*
X4943396Y11711810D01*
X4943396Y12003661D02*
G01*
X4943396Y12207798D01*
X3743398Y12207798D01*
X3743398Y10620298D02*
G01*
X3743398Y10416037D01*
X3743398Y10123926D02*
G01*
X3743398Y9916543D01*
X3743398Y9624692D02*
G01*
X3743398Y9420301D01*
X4943396Y9420301D01*
X4943396Y9624438D01*
X4943396Y9916289D02*
G01*
X4943396Y10124310D01*
X4943396Y10416161D02*
G01*
X4943396Y10620298D01*
X3743398Y10620298D01*
X762000Y12204700D02*
G01*
X3556000Y12204700D01*
X3556000Y9410700D01*
X762000Y9410700D01*
X762000Y12204700D01*
X1016000Y11696700D02*
G01*
X3302000Y11696700D01*
X3302000Y9918700D01*
X1016000Y9918700D01*
X1016000Y11696700D01*
G75*
G01
X4711697Y11607800D02*
G03X4711697Y11607800I-368300J0D01*
G75*
G01
X4550128Y11607800D02*
G03X4550128Y11607800I-206731J0D01*
G75*
G01
X4711697Y10020300D02*
G03X4711697Y10020300I-368300J0D01*
G75*
G01
X4550128Y10020300D02*
G03X4550128Y10020300I-206731J0D01*
M02*
