G04 Layer: BottomSilkscreenLayer*
G04 EasyEDA v6.5.15, 2022-08-31 14:33:10*
G04 7f742d56b1564ff082f2a7d2e7a97bc1,d16243303ffc4a33bbfddbaf118a1a26,10*
G04 Gerber Generator version 0.2*
G04 Scale: 100 percent, Rotated: No, Reflected: No *
G04 Dimensions in millimeters *
G04 leading zeros omitted , absolute positions ,4 integer and 5 decimal *
%FSLAX45Y45*%
%MOMM*%

%ADD10C,0.1524*%
%ADD11C,0.2032*%

%LPD*%
G36*
X1528368Y11804599D02*
G01*
X1528368Y11779910D01*
X2336800Y11779910D01*
X2336800Y11029289D01*
X1553768Y11029289D01*
X1553768Y11779910D01*
X1528368Y11779910D01*
X1528368Y11004600D01*
X2362200Y11004600D01*
X2362200Y11804599D01*
G37*
G36*
X1286865Y11745976D02*
G01*
X1257198Y11743639D01*
X1245514Y11742470D01*
X1235506Y11741150D01*
X1228242Y11739829D01*
X1224838Y11738610D01*
X1222095Y11735917D01*
X1227988Y11712956D01*
X1285595Y11713260D01*
X1307185Y11685320D01*
X1306474Y11636705D01*
X1281785Y11611051D01*
X1229207Y11615216D01*
X1218285Y11591950D01*
X1231290Y11587175D01*
X1237996Y11585295D01*
X1246530Y11583771D01*
X1255826Y11582755D01*
X1264818Y11582349D01*
X1285341Y11582349D01*
X1320647Y11598656D01*
X1328775Y11610695D01*
X1332179Y11616791D01*
X1335430Y11624513D01*
X1338173Y11632844D01*
X1340053Y11640820D01*
X1343202Y11658904D01*
X1335582Y11707063D01*
X1326489Y11717020D01*
X1321714Y11721642D01*
X1315567Y11726875D01*
X1308760Y11732006D01*
X1302105Y11736476D01*
G37*
G36*
X1159764Y11740438D02*
G01*
X1126693Y11740388D01*
X1126693Y11633962D01*
X1110843Y11612016D01*
X1076604Y11612016D01*
X1061313Y11626799D01*
X1054303Y11681409D01*
X1058722Y11740388D01*
X1025042Y11740388D01*
X1025042Y11625884D01*
X1042365Y11597335D01*
X1074826Y11582349D01*
X1114196Y11582349D01*
X1151991Y11607342D01*
X1154887Y11620296D01*
X1155649Y11626951D01*
X1157071Y11648643D01*
X1158240Y11677243D01*
G37*
G36*
X873353Y11740388D02*
G01*
X852779Y11687556D01*
X836098Y11646560D01*
X871778Y11646560D01*
X877163Y11662664D01*
X882294Y11675922D01*
X891082Y11696395D01*
X900023Y11669877D01*
X904748Y11656618D01*
X908913Y11646560D01*
X836098Y11646560D01*
X812190Y11589766D01*
X820724Y11586413D01*
X824687Y11585092D01*
X833577Y11583111D01*
X837387Y11582704D01*
X845515Y11582349D01*
X861720Y11622379D01*
X920445Y11619433D01*
X929589Y11588242D01*
X946810Y11586311D01*
X953516Y11585752D01*
X959002Y11585752D01*
X962710Y11586159D01*
X964133Y11587073D01*
X963117Y11590477D01*
X955598Y11611102D01*
X942695Y11644985D01*
X905510Y11740286D01*
G37*
G36*
X2199487Y11715699D02*
G01*
X2199487Y11641632D01*
X2270658Y11641632D01*
X2270658Y11715699D01*
G37*
G36*
X2046986Y11715699D02*
G01*
X2046986Y11641632D01*
X2123236Y11641632D01*
X2123236Y11715699D01*
G37*
G36*
X2200351Y11562638D02*
G01*
X2196947Y11493449D01*
X2270658Y11493500D01*
X2270658Y11562638D01*
G37*
G36*
X2046986Y11562638D02*
G01*
X2046986Y11493500D01*
X2123236Y11493500D01*
X2123236Y11562638D01*
G37*
G36*
X905510Y11488521D02*
G01*
X859790Y11483543D01*
X847039Y11474399D01*
X841349Y11469573D01*
X835101Y11463070D01*
X829157Y11455755D01*
X824230Y11448542D01*
X814120Y11431778D01*
X814451Y11408867D01*
X846074Y11408867D01*
X858012Y11444071D01*
X879856Y11458905D01*
X892657Y11458752D01*
X899058Y11458346D01*
X904849Y11457228D01*
X910183Y11455349D01*
X915060Y11452758D01*
X919530Y11449354D01*
X923645Y11445138D01*
X927455Y11440109D01*
X930960Y11434216D01*
X938580Y11419890D01*
X938580Y11407140D01*
X938021Y11400840D01*
X936396Y11393119D01*
X934059Y11384889D01*
X931214Y11377269D01*
X923848Y11360099D01*
X895756Y11349736D01*
X884275Y11352530D01*
X878992Y11354460D01*
X873150Y11357660D01*
X867410Y11361623D01*
X862533Y11365992D01*
X852271Y11376710D01*
X846074Y11408867D01*
X814451Y11408867D01*
X814933Y11375390D01*
X839419Y11340439D01*
X873252Y11324742D01*
X918413Y11324742D01*
X951280Y11343081D01*
X974902Y11387328D01*
X969670Y11440617D01*
X940155Y11476177D01*
G37*
G36*
X1350416Y11483898D02*
G01*
X1215694Y11481155D01*
X1212443Y11458905D01*
X1269085Y11458905D01*
X1269085Y11325606D01*
X1299565Y11325606D01*
X1299565Y11458905D01*
X1350416Y11458905D01*
G37*
G36*
X1075334Y11483594D02*
G01*
X1045667Y11468709D01*
X1035202Y11449710D01*
X1035202Y11426342D01*
X1070762Y11426342D01*
X1070762Y11447475D01*
X1083716Y11453164D01*
X1089558Y11455400D01*
X1095806Y11457228D01*
X1101750Y11458448D01*
X1106627Y11458905D01*
X1116533Y11458905D01*
X1116533Y11414455D01*
X1083005Y11414455D01*
X1070762Y11426342D01*
X1035202Y11426342D01*
X1035202Y11416182D01*
X1059840Y11393678D01*
X1038910Y11356695D01*
X1032713Y11345164D01*
X1027988Y11335867D01*
X1025347Y11329924D01*
X1025042Y11328552D01*
X1025042Y11324945D01*
X1057452Y11328044D01*
X1091590Y11384838D01*
X1116533Y11384838D01*
X1116533Y11325606D01*
X1152144Y11325606D01*
X1152144Y11483594D01*
G37*
G36*
X1317345Y11229340D02*
G01*
X1299718Y11198453D01*
X1292656Y11186464D01*
X1286510Y11176660D01*
X1281836Y11170056D01*
X1279398Y11167618D01*
X1277010Y11169954D01*
X1272590Y11176355D01*
X1266647Y11185753D01*
X1259941Y11197234D01*
X1243228Y11226800D01*
X1218793Y11226698D01*
X1213205Y11226292D01*
X1209446Y11225682D01*
X1208074Y11224971D01*
X1210259Y11220500D01*
X1225143Y11193932D01*
X1263954Y11127232D01*
X1263954Y11068812D01*
X1299565Y11068812D01*
X1299565Y11134496D01*
X1346098Y11212830D01*
X1340866Y11226038D01*
G37*
G36*
X993749Y11202111D02*
G01*
X963980Y11173256D01*
X963980Y11165789D01*
X964437Y11161826D01*
X965555Y11156492D01*
X967282Y11150549D01*
X969365Y11144656D01*
X974699Y11130991D01*
X1016558Y11093500D01*
X958900Y11093500D01*
X958900Y11068812D01*
X1065682Y11068812D01*
X1065682Y11092942D01*
X1051458Y11102746D01*
X1043736Y11108944D01*
X1034084Y11117224D01*
X1023772Y11126520D01*
X994511Y11154003D01*
X994511Y11167770D01*
X1019149Y11178692D01*
X1051610Y11167668D01*
X1056132Y11170361D01*
X1057859Y11172190D01*
X1059281Y11175034D01*
X1060246Y11178590D01*
X1060602Y11182400D01*
X1060602Y11191748D01*
X1042822Y11201806D01*
G37*
G36*
X1763064Y11137950D02*
G01*
X1759712Y11068761D01*
X1833422Y11068812D01*
X1833422Y11137950D01*
G37*
G36*
X1614779Y11137950D02*
G01*
X1614779Y11068812D01*
X1686001Y11068812D01*
X1686001Y11137950D01*
G37*
D10*
X392684Y10033000D02*
G01*
X470662Y10033000D01*
X486155Y10027920D01*
X496570Y10017505D01*
X501650Y10001758D01*
X501650Y9991344D01*
X496570Y9975850D01*
X486155Y9965436D01*
X470662Y9960355D01*
X392684Y9960355D01*
X413512Y9926065D02*
G01*
X408178Y9915652D01*
X392684Y9899904D01*
X501650Y9899904D01*
X1099057Y10654792D02*
G01*
X1176781Y10654792D01*
X1099057Y10680700D02*
G01*
X1099057Y10628884D01*
X1099057Y10604500D02*
G01*
X1176781Y10552937D01*
X1099057Y10552937D02*
G01*
X1176781Y10604500D01*
X1353057Y10680700D02*
G01*
X1430781Y10680700D01*
X1353057Y10680700D02*
G01*
X1353057Y10647426D01*
X1356868Y10636250D01*
X1360423Y10632694D01*
X1367789Y10628884D01*
X1375155Y10628884D01*
X1382521Y10632694D01*
X1386331Y10636250D01*
X1390142Y10647426D01*
X1390142Y10680700D01*
X1390142Y10654792D02*
G01*
X1430781Y10628884D01*
X1353057Y10604500D02*
G01*
X1430781Y10552937D01*
X1353057Y10552937D02*
G01*
X1430781Y10604500D01*
X1879600Y10625328D02*
G01*
X1872234Y10628884D01*
X1864868Y10636250D01*
X1861057Y10643870D01*
X1861057Y10658602D01*
X1864868Y10665968D01*
X1872234Y10673334D01*
X1879600Y10676889D01*
X1890521Y10680700D01*
X1909063Y10680700D01*
X1920239Y10676889D01*
X1927605Y10673334D01*
X1934972Y10665968D01*
X1938781Y10658602D01*
X1938781Y10643870D01*
X1934972Y10636250D01*
X1927605Y10628884D01*
X1920239Y10625328D01*
X1909063Y10625328D01*
X1909063Y10643870D02*
G01*
X1909063Y10625328D01*
X1861057Y10600944D02*
G01*
X1938781Y10600944D01*
X1861057Y10600944D02*
G01*
X1938781Y10549128D01*
X1861057Y10549128D02*
G01*
X1938781Y10549128D01*
X1861057Y10524744D02*
G01*
X1938781Y10524744D01*
X1861057Y10524744D02*
G01*
X1861057Y10498836D01*
X1864868Y10487913D01*
X1872234Y10480547D01*
X1879600Y10476737D01*
X1890521Y10473181D01*
X1909063Y10473181D01*
X1920239Y10476737D01*
X1927605Y10480547D01*
X1934972Y10487913D01*
X1938781Y10498836D01*
X1938781Y10524744D01*
X1371600Y9533128D02*
G01*
X1364234Y9536684D01*
X1356868Y9544050D01*
X1353057Y9551670D01*
X1353057Y9566402D01*
X1356868Y9573768D01*
X1364234Y9581134D01*
X1371600Y9584689D01*
X1382521Y9588500D01*
X1401063Y9588500D01*
X1412239Y9584689D01*
X1419605Y9581134D01*
X1426971Y9573768D01*
X1430781Y9566402D01*
X1430781Y9551670D01*
X1426971Y9544050D01*
X1419605Y9536684D01*
X1412239Y9533128D01*
X1401063Y9533128D01*
X1401063Y9551670D02*
G01*
X1401063Y9533128D01*
X1353057Y9508744D02*
G01*
X1430781Y9508744D01*
X1353057Y9508744D02*
G01*
X1430781Y9456928D01*
X1353057Y9456928D02*
G01*
X1430781Y9456928D01*
X1353057Y9432544D02*
G01*
X1430781Y9432544D01*
X1353057Y9432544D02*
G01*
X1353057Y9406636D01*
X1356868Y9395713D01*
X1364234Y9388347D01*
X1371600Y9384537D01*
X1382521Y9380981D01*
X1401063Y9380981D01*
X1412239Y9384537D01*
X1419605Y9388347D01*
X1426971Y9395713D01*
X1430781Y9406636D01*
X1430781Y9432544D01*
X1099057Y9601200D02*
G01*
X1176781Y9601200D01*
X1099057Y9601200D02*
G01*
X1099057Y9567926D01*
X1102868Y9556750D01*
X1106423Y9553194D01*
X1113789Y9549384D01*
X1121155Y9549384D01*
X1128521Y9553194D01*
X1132331Y9556750D01*
X1136142Y9567926D01*
X1136142Y9601200D01*
X1136142Y9575292D02*
G01*
X1176781Y9549384D01*
X1099057Y9495536D02*
G01*
X1176781Y9525000D01*
X1099057Y9495536D02*
G01*
X1176781Y9466071D01*
X1150873Y9514078D02*
G01*
X1150873Y9476994D01*
X1099057Y9441687D02*
G01*
X1176781Y9423145D01*
X1099057Y9404604D02*
G01*
X1176781Y9423145D01*
X1099057Y9404604D02*
G01*
X1176781Y9386062D01*
X1099057Y9367774D02*
G01*
X1176781Y9386062D01*
X2115058Y10680700D02*
G01*
X2192781Y10680700D01*
X2115058Y10680700D02*
G01*
X2115058Y10654792D01*
X2118868Y10643870D01*
X2126234Y10636250D01*
X2133600Y10632694D01*
X2144522Y10628884D01*
X2163063Y10628884D01*
X2174240Y10632694D01*
X2181606Y10636250D01*
X2188972Y10643870D01*
X2192781Y10654792D01*
X2192781Y10680700D01*
X2133600Y10600944D02*
G01*
X2129790Y10600944D01*
X2122424Y10597134D01*
X2118868Y10593578D01*
X2115058Y10586212D01*
X2115058Y10571226D01*
X2118868Y10563860D01*
X2122424Y10560304D01*
X2129790Y10556494D01*
X2137156Y10556494D01*
X2144522Y10560304D01*
X2155697Y10567670D01*
X2192781Y10604500D01*
X2192781Y10552937D01*
X2369058Y10680700D02*
G01*
X2446781Y10680700D01*
X2369058Y10680700D02*
G01*
X2369058Y10654792D01*
X2372868Y10643870D01*
X2380234Y10636250D01*
X2387600Y10632694D01*
X2398522Y10628884D01*
X2417063Y10628884D01*
X2428240Y10632694D01*
X2435606Y10636250D01*
X2442972Y10643870D01*
X2446781Y10654792D01*
X2446781Y10680700D01*
X2369058Y10597134D02*
G01*
X2369058Y10556494D01*
X2398522Y10578845D01*
X2398522Y10567670D01*
X2402331Y10560304D01*
X2406141Y10556494D01*
X2417063Y10552937D01*
X2424429Y10552937D01*
X2435606Y10556494D01*
X2442972Y10563860D01*
X2446781Y10575036D01*
X2446781Y10586212D01*
X2442972Y10597134D01*
X2439161Y10600944D01*
X2431795Y10604500D01*
X2623058Y10680700D02*
G01*
X2700781Y10680700D01*
X2623058Y10680700D02*
G01*
X2623058Y10654792D01*
X2626868Y10643870D01*
X2634234Y10636250D01*
X2641600Y10632694D01*
X2652522Y10628884D01*
X2671063Y10628884D01*
X2682240Y10632694D01*
X2689606Y10636250D01*
X2696972Y10643870D01*
X2700781Y10654792D01*
X2700781Y10680700D01*
X2623058Y10567670D02*
G01*
X2674874Y10604500D01*
X2674874Y10549128D01*
X2623058Y10567670D02*
G01*
X2700781Y10567670D01*
X2877058Y10680700D02*
G01*
X2954781Y10680700D01*
X2877058Y10680700D02*
G01*
X2877058Y10654792D01*
X2880868Y10643870D01*
X2888234Y10636250D01*
X2895600Y10632694D01*
X2906522Y10628884D01*
X2925063Y10628884D01*
X2936240Y10632694D01*
X2943606Y10636250D01*
X2950972Y10643870D01*
X2954781Y10654792D01*
X2954781Y10680700D01*
X2877058Y10560304D02*
G01*
X2877058Y10597134D01*
X2910331Y10600944D01*
X2906522Y10597134D01*
X2902965Y10586212D01*
X2902965Y10575036D01*
X2906522Y10563860D01*
X2914141Y10556494D01*
X2925063Y10552937D01*
X2932429Y10552937D01*
X2943606Y10556494D01*
X2950972Y10563860D01*
X2954781Y10575036D01*
X2954781Y10586212D01*
X2950972Y10597134D01*
X2947161Y10600944D01*
X2939795Y10604500D01*
X3131058Y10680700D02*
G01*
X3208781Y10680700D01*
X3131058Y10680700D02*
G01*
X3131058Y10654792D01*
X3134868Y10643870D01*
X3142234Y10636250D01*
X3149600Y10632694D01*
X3160522Y10628884D01*
X3179063Y10628884D01*
X3190240Y10632694D01*
X3197606Y10636250D01*
X3204972Y10643870D01*
X3208781Y10654792D01*
X3208781Y10680700D01*
X3142234Y10560304D02*
G01*
X3134868Y10563860D01*
X3131058Y10575036D01*
X3131058Y10582402D01*
X3134868Y10593578D01*
X3145790Y10600944D01*
X3164331Y10604500D01*
X3182874Y10604500D01*
X3197606Y10600944D01*
X3204972Y10593578D01*
X3208781Y10582402D01*
X3208781Y10578845D01*
X3204972Y10567670D01*
X3197606Y10560304D01*
X3186429Y10556494D01*
X3182874Y10556494D01*
X3171697Y10560304D01*
X3164331Y10567670D01*
X3160522Y10578845D01*
X3160522Y10582402D01*
X3164331Y10593578D01*
X3171697Y10600944D01*
X3182874Y10604500D01*
X3385058Y10680700D02*
G01*
X3462781Y10680700D01*
X3385058Y10680700D02*
G01*
X3385058Y10654792D01*
X3388868Y10643870D01*
X3396234Y10636250D01*
X3403600Y10632694D01*
X3414522Y10628884D01*
X3433063Y10628884D01*
X3444240Y10632694D01*
X3451606Y10636250D01*
X3458972Y10643870D01*
X3462781Y10654792D01*
X3462781Y10680700D01*
X3385058Y10552937D02*
G01*
X3462781Y10589768D01*
X3385058Y10604500D02*
G01*
X3385058Y10552937D01*
X3639058Y10680700D02*
G01*
X3716781Y10680700D01*
X3639058Y10680700D02*
G01*
X3639058Y10654792D01*
X3642868Y10643870D01*
X3650234Y10636250D01*
X3657600Y10632694D01*
X3668522Y10628884D01*
X3687063Y10628884D01*
X3698240Y10632694D01*
X3705606Y10636250D01*
X3712972Y10643870D01*
X3716781Y10654792D01*
X3716781Y10680700D01*
X3639058Y10586212D02*
G01*
X3642868Y10597134D01*
X3650234Y10600944D01*
X3657600Y10600944D01*
X3664965Y10597134D01*
X3668522Y10589768D01*
X3672331Y10575036D01*
X3676141Y10563860D01*
X3683508Y10556494D01*
X3690874Y10552937D01*
X3701795Y10552937D01*
X3709161Y10556494D01*
X3712972Y10560304D01*
X3716781Y10571226D01*
X3716781Y10586212D01*
X3712972Y10597134D01*
X3709161Y10600944D01*
X3701795Y10604500D01*
X3690874Y10604500D01*
X3683508Y10600944D01*
X3676141Y10593578D01*
X3672331Y10582402D01*
X3668522Y10567670D01*
X3664965Y10560304D01*
X3657600Y10556494D01*
X3650234Y10556494D01*
X3642868Y10560304D01*
X3639058Y10571226D01*
X3639058Y10586212D01*
X3893058Y10680700D02*
G01*
X3970781Y10680700D01*
X3893058Y10680700D02*
G01*
X3893058Y10654792D01*
X3896868Y10643870D01*
X3904234Y10636250D01*
X3911600Y10632694D01*
X3922522Y10628884D01*
X3941063Y10628884D01*
X3952240Y10632694D01*
X3959606Y10636250D01*
X3966972Y10643870D01*
X3970781Y10654792D01*
X3970781Y10680700D01*
X3918965Y10556494D02*
G01*
X3930141Y10560304D01*
X3937508Y10567670D01*
X3941063Y10578845D01*
X3941063Y10582402D01*
X3937508Y10593578D01*
X3930141Y10600944D01*
X3918965Y10604500D01*
X3915156Y10604500D01*
X3904234Y10600944D01*
X3896868Y10593578D01*
X3893058Y10582402D01*
X3893058Y10578845D01*
X3896868Y10567670D01*
X3904234Y10560304D01*
X3918965Y10556494D01*
X3937508Y10556494D01*
X3955795Y10560304D01*
X3966972Y10567670D01*
X3970781Y10578845D01*
X3970781Y10586212D01*
X3966972Y10597134D01*
X3959606Y10600944D01*
X1607057Y9575800D02*
G01*
X1684781Y9575800D01*
X1607057Y9575800D02*
G01*
X1607057Y9542526D01*
X1610868Y9531350D01*
X1614423Y9527794D01*
X1621789Y9523984D01*
X1629155Y9523984D01*
X1636521Y9527794D01*
X1640331Y9531350D01*
X1644142Y9542526D01*
X1644142Y9575800D01*
X1644142Y9549892D02*
G01*
X1684781Y9523984D01*
X1618234Y9448037D02*
G01*
X1610868Y9455404D01*
X1607057Y9466326D01*
X1607057Y9481312D01*
X1610868Y9492234D01*
X1618234Y9499600D01*
X1625600Y9499600D01*
X1632965Y9496044D01*
X1636521Y9492234D01*
X1640331Y9484868D01*
X1647697Y9462770D01*
X1651507Y9455404D01*
X1655063Y9451594D01*
X1662429Y9448037D01*
X1673605Y9448037D01*
X1680971Y9455404D01*
X1684781Y9466326D01*
X1684781Y9481312D01*
X1680971Y9492234D01*
X1673605Y9499600D01*
X1607057Y9397745D02*
G01*
X1684781Y9397745D01*
X1607057Y9423654D02*
G01*
X1607057Y9371837D01*
X1861057Y9480550D02*
G01*
X1861057Y9517634D01*
X1894331Y9521189D01*
X1890521Y9517634D01*
X1886965Y9506458D01*
X1886965Y9495536D01*
X1890521Y9484360D01*
X1898142Y9476994D01*
X1909063Y9473184D01*
X1916429Y9473184D01*
X1927605Y9476994D01*
X1934972Y9484360D01*
X1938781Y9495536D01*
X1938781Y9506458D01*
X1934972Y9517634D01*
X1931161Y9521189D01*
X1923795Y9525000D01*
X1861057Y9448800D02*
G01*
X1938781Y9419336D01*
X1861057Y9389871D02*
G01*
X1938781Y9419336D01*
X2115058Y9495536D02*
G01*
X2192781Y9525000D01*
X2115058Y9495536D02*
G01*
X2192781Y9465818D01*
X2166874Y9513824D02*
G01*
X2166874Y9476994D01*
X2115058Y9434068D02*
G01*
X2115058Y9393428D01*
X2144522Y9415526D01*
X2144522Y9404604D01*
X2148331Y9397237D01*
X2152141Y9393428D01*
X2163063Y9389871D01*
X2170429Y9389871D01*
X2181606Y9393428D01*
X2188972Y9400794D01*
X2192781Y9411970D01*
X2192781Y9423145D01*
X2188972Y9434068D01*
X2185161Y9437878D01*
X2177795Y9441434D01*
X2369058Y9495536D02*
G01*
X2446781Y9525000D01*
X2369058Y9495536D02*
G01*
X2446781Y9465818D01*
X2420874Y9513824D02*
G01*
X2420874Y9476994D01*
X2387600Y9437878D02*
G01*
X2383790Y9437878D01*
X2376424Y9434068D01*
X2372868Y9430512D01*
X2369058Y9423145D01*
X2369058Y9408160D01*
X2372868Y9400794D01*
X2376424Y9397237D01*
X2383790Y9393428D01*
X2391156Y9393428D01*
X2398522Y9397237D01*
X2409697Y9404604D01*
X2446781Y9441434D01*
X2446781Y9389871D01*
X2623058Y9470136D02*
G01*
X2700781Y9499600D01*
X2623058Y9470136D02*
G01*
X2700781Y9440418D01*
X2674874Y9488424D02*
G01*
X2674874Y9451594D01*
X2637790Y9416034D02*
G01*
X2634234Y9408668D01*
X2623058Y9397745D01*
X2700781Y9397745D01*
X2877058Y9495536D02*
G01*
X2954781Y9525000D01*
X2877058Y9495536D02*
G01*
X2954781Y9465818D01*
X2928874Y9513824D02*
G01*
X2928874Y9476994D01*
X2877058Y9419336D02*
G01*
X2880868Y9430512D01*
X2891790Y9437878D01*
X2910331Y9441434D01*
X2921508Y9441434D01*
X2939795Y9437878D01*
X2950972Y9430512D01*
X2954781Y9419336D01*
X2954781Y9411970D01*
X2950972Y9400794D01*
X2939795Y9393428D01*
X2921508Y9389871D01*
X2910331Y9389871D01*
X2891790Y9393428D01*
X2880868Y9400794D01*
X2877058Y9411970D01*
X2877058Y9419336D01*
X3131058Y9550400D02*
G01*
X3208781Y9550400D01*
X3131058Y9550400D02*
G01*
X3131058Y9524492D01*
X3134868Y9513570D01*
X3142234Y9505950D01*
X3149600Y9502394D01*
X3160522Y9498584D01*
X3179063Y9498584D01*
X3190240Y9502394D01*
X3197606Y9505950D01*
X3204972Y9513570D01*
X3208781Y9524492D01*
X3208781Y9550400D01*
X3145790Y9474200D02*
G01*
X3142234Y9466834D01*
X3131058Y9455912D01*
X3208781Y9455912D01*
X3131058Y9387078D02*
G01*
X3131058Y9424162D01*
X3164331Y9427718D01*
X3160522Y9424162D01*
X3156965Y9412986D01*
X3156965Y9401810D01*
X3160522Y9390887D01*
X3168141Y9383521D01*
X3179063Y9379712D01*
X3186429Y9379712D01*
X3197606Y9383521D01*
X3204972Y9390887D01*
X3208781Y9401810D01*
X3208781Y9412986D01*
X3204972Y9424162D01*
X3201161Y9427718D01*
X3193795Y9431528D01*
X3385058Y9550400D02*
G01*
X3462781Y9550400D01*
X3385058Y9550400D02*
G01*
X3385058Y9524492D01*
X3388868Y9513570D01*
X3396234Y9505950D01*
X3403600Y9502394D01*
X3414522Y9498584D01*
X3433063Y9498584D01*
X3444240Y9502394D01*
X3451606Y9505950D01*
X3458972Y9513570D01*
X3462781Y9524492D01*
X3462781Y9550400D01*
X3399790Y9474200D02*
G01*
X3396234Y9466834D01*
X3385058Y9455912D01*
X3462781Y9455912D01*
X3385058Y9394444D02*
G01*
X3436874Y9431528D01*
X3436874Y9375902D01*
X3385058Y9394444D02*
G01*
X3462781Y9394444D01*
X3639058Y9550400D02*
G01*
X3716781Y9550400D01*
X3639058Y9550400D02*
G01*
X3639058Y9524492D01*
X3642868Y9513570D01*
X3650234Y9505950D01*
X3657600Y9502394D01*
X3668522Y9498584D01*
X3687063Y9498584D01*
X3698240Y9502394D01*
X3705606Y9505950D01*
X3712972Y9513570D01*
X3716781Y9524492D01*
X3716781Y9550400D01*
X3653790Y9474200D02*
G01*
X3650234Y9466834D01*
X3639058Y9455912D01*
X3716781Y9455912D01*
X3650234Y9387078D02*
G01*
X3642868Y9390887D01*
X3639058Y9401810D01*
X3639058Y9409176D01*
X3642868Y9420352D01*
X3653790Y9427718D01*
X3672331Y9431528D01*
X3690874Y9431528D01*
X3705606Y9427718D01*
X3712972Y9420352D01*
X3716781Y9409176D01*
X3716781Y9405620D01*
X3712972Y9394444D01*
X3705606Y9387078D01*
X3694429Y9383521D01*
X3690874Y9383521D01*
X3679697Y9387078D01*
X3672331Y9394444D01*
X3668522Y9405620D01*
X3668522Y9409176D01*
X3672331Y9420352D01*
X3679697Y9427718D01*
X3690874Y9431528D01*
X3893058Y9550400D02*
G01*
X3970781Y9550400D01*
X3893058Y9550400D02*
G01*
X3893058Y9524492D01*
X3896868Y9513570D01*
X3904234Y9505950D01*
X3911600Y9502394D01*
X3922522Y9498584D01*
X3941063Y9498584D01*
X3952240Y9502394D01*
X3959606Y9505950D01*
X3966972Y9513570D01*
X3970781Y9524492D01*
X3970781Y9550400D01*
X3907790Y9474200D02*
G01*
X3904234Y9466834D01*
X3893058Y9455912D01*
X3970781Y9455912D01*
X3893058Y9409176D02*
G01*
X3896868Y9420352D01*
X3907790Y9427718D01*
X3926331Y9431528D01*
X3937508Y9431528D01*
X3955795Y9427718D01*
X3966972Y9420352D01*
X3970781Y9409176D01*
X3970781Y9401810D01*
X3966972Y9390887D01*
X3955795Y9383521D01*
X3937508Y9379712D01*
X3926331Y9379712D01*
X3907790Y9383521D01*
X3896868Y9390887D01*
X3893058Y9401810D01*
X3893058Y9409176D01*
X1187957Y10414000D02*
G01*
X1243329Y10414000D01*
X1254505Y10410189D01*
X1261871Y10402824D01*
X1265681Y10391902D01*
X1265681Y10384536D01*
X1261871Y10373360D01*
X1254505Y10365994D01*
X1243329Y10362184D01*
X1187957Y10362184D01*
X1199134Y10286237D02*
G01*
X1191768Y10293604D01*
X1187957Y10304526D01*
X1187957Y10319512D01*
X1191768Y10330434D01*
X1199134Y10337800D01*
X1206500Y10337800D01*
X1213865Y10334244D01*
X1217421Y10330434D01*
X1221231Y10323068D01*
X1228597Y10300970D01*
X1232407Y10293604D01*
X1235963Y10289794D01*
X1243329Y10286237D01*
X1254505Y10286237D01*
X1261871Y10293604D01*
X1265681Y10304526D01*
X1265681Y10319512D01*
X1261871Y10330434D01*
X1254505Y10337800D01*
X1187957Y10261854D02*
G01*
X1265681Y10261854D01*
X1187957Y10261854D02*
G01*
X1187957Y10228579D01*
X1191768Y10217404D01*
X1195323Y10213847D01*
X1202689Y10210037D01*
X1210055Y10210037D01*
X1217421Y10213847D01*
X1221231Y10217404D01*
X1225042Y10228579D01*
X1225042Y10261854D02*
G01*
X1225042Y10228579D01*
X1228597Y10217404D01*
X1232407Y10213847D01*
X1239773Y10210037D01*
X1250695Y10210037D01*
X1258062Y10213847D01*
X1261871Y10217404D01*
X1265681Y10228579D01*
X1265681Y10261854D01*
X1625600Y10625328D02*
G01*
X1618234Y10628884D01*
X1610868Y10636250D01*
X1607057Y10643870D01*
X1607057Y10658602D01*
X1610868Y10665968D01*
X1618234Y10673334D01*
X1625600Y10676889D01*
X1636521Y10680700D01*
X1655063Y10680700D01*
X1666239Y10676889D01*
X1673605Y10673334D01*
X1680971Y10665968D01*
X1684781Y10658602D01*
X1684781Y10643870D01*
X1680971Y10636250D01*
X1673605Y10628884D01*
X1666239Y10625328D01*
X1655063Y10625328D01*
X1655063Y10643870D02*
G01*
X1655063Y10625328D01*
X1607057Y10600944D02*
G01*
X1684781Y10600944D01*
X1607057Y10600944D02*
G01*
X1684781Y10549128D01*
X1607057Y10549128D02*
G01*
X1684781Y10549128D01*
X1607057Y10524744D02*
G01*
X1684781Y10524744D01*
X1607057Y10524744D02*
G01*
X1607057Y10498836D01*
X1610868Y10487913D01*
X1618234Y10480547D01*
X1625600Y10476737D01*
X1636521Y10473181D01*
X1655063Y10473181D01*
X1666239Y10476737D01*
X1673605Y10480547D01*
X1680971Y10487913D01*
X1684781Y10498836D01*
X1684781Y10524744D01*
D11*
X1117600Y9804400D02*
G01*
X1054100Y9804400D01*
X1054100Y9753600D01*
X1117600Y9753600D01*
X1117600Y10312400D02*
G01*
X1054100Y10312400D01*
X1054100Y10261600D01*
X1117600Y10261600D01*
X762000Y10414000D02*
G01*
X762000Y10947400D01*
X4064000Y10947400D01*
X4064000Y9118600D01*
X762000Y9118600D01*
X762000Y9652000D01*
X533400Y10414000D02*
G01*
X533400Y9652000D01*
X1117600Y9652000D01*
X1117600Y10414000D01*
X533400Y10414000D01*
X596900Y10350500D02*
G01*
X596900Y10287000D01*
X774700Y10287000D01*
X774700Y10350500D01*
X596900Y10350500D01*
X596900Y9779000D02*
G01*
X596900Y9715500D01*
X774700Y9715500D01*
X774700Y9779000D01*
X596900Y9779000D01*
M02*
